<svg xmlns="http://www.w3.org/2000/svg" width="200" height="200" viewBox="0 0 200 200" role="img" aria-label="Loci"><defs><linearGradient id="peach" x1="0" y1="0" x2="0.7" y2="1"><stop stop-color="#FFD4BC"/><stop offset="0.55" stop-color="#FFB99F"/><stop offset="1" stop-color="#EBA6BA"/></linearGradient><linearGradient id="cream" x1="0" y1="0" x2="1" y2="0.8"><stop stop-color="#EFE9E4"/><stop offset="1" stop-color="#F2E5D9"/></linearGradient><linearGradient id="blue" x1="0" y1="0" x2="0.8" y2="1"><stop stop-color="#AC9DE9"/><stop offset="0.55" stop-color="#718FE2"/><stop offset="1" stop-color="#DCD9E4"/></linearGradient></defs><g transform="translate(7 8) scale(.94)"><path d="M 14,47 Q 14,39 22,35 L 99,0 Q 108,-4 108,7 L 108,118 Q 108,126 100,129 L 24,157 Q 14,160 14,148 Z" fill="url(#peach)"/><path d="M 61,60 L 158,23 Q 172,18 172,31 L 172,166 Q 172,179 159,175 L 61,147 Q 53,145 53,135 L 53,72 Q 53,63 61,60 Z" fill="url(#cream)" fill-opacity="0.88"/><path d="M 61,60 L 108,42 L 108,175 Q 108,188 96,184 L 61,173 Q 53,170 53,160 L 53,72 Q 53,63 61,60 Z" fill="url(#blue)" fill-opacity="0.82"/></g></svg>